<svg width="51" height="34" viewBox="0 0 51 34" fill="none" xmlns="http://www.w3.org/2000/svg">
<path d="M46.75 0H4.25C1.9125 0 0 1.7 0 3.77778V30.2222C0 32.3 1.9125 34 4.25 34H46.75C49.0875 34 50.9787 32.3 50.9787 30.2222L51 3.77778C51 1.7 49.0875 0 46.75 0ZM46.75 30.2222H4.25V3.77778H46.75V30.2222ZM44.625 5.66667H29.75V15.1111H44.625V5.66667ZM42.5 9.44444L37.1875 12.75L31.875 9.44444V7.55556L37.1875 10.8611L42.5 7.55556V9.44444ZM19.125 17C22.6312 17 25.5 14.45 25.5 11.3333C25.5 8.21667 22.6312 5.66667 19.125 5.66667C15.6187 5.66667 12.75 8.21667 12.75 11.3333C12.75 14.45 15.6187 17 19.125 17ZM19.125 9.44444C20.2937 9.44444 21.25 10.2944 21.25 11.3333C21.25 12.3722 20.2937 13.2222 19.125 13.2222C17.9562 13.2222 17 12.3722 17 11.3333C17 10.2944 17.9562 9.44444 19.125 9.44444ZM31.875 25.67C31.875 20.9478 23.4387 18.9078 19.125 18.9078C14.8112 18.9078 6.375 20.9478 6.375 25.67V28.3333H31.875V25.67ZM11.645 24.5556C13.2175 23.6111 16.3625 22.6667 19.125 22.6667C21.8875 22.6667 25.0113 23.5922 26.605 24.5556H11.645Z" fill="#323232"/>
</svg>
