<svg width="27" height="27" viewBox="0 0 27 27" fill="none" xmlns="http://www.w3.org/2000/svg">
<path d="M13.5938 6.79688C14.8141 6.79688 15.8125 7.79531 15.8125 9.01562C15.8125 10.2359 14.8141 11.2344 13.5938 11.2344C12.3734 11.2344 11.375 10.2359 11.375 9.01562C11.375 7.79531 12.3734 6.79688 13.5938 6.79688ZM13.5938 16.7812C16.5891 16.7812 20.0281 18.2123 20.25 19V20.1094H6.9375V19.0111C7.15937 18.2123 10.5984 16.7812 13.5938 16.7812ZM13.5938 4.57812C11.142 4.57812 9.15625 6.56391 9.15625 9.01562C9.15625 11.4673 11.142 13.4531 13.5938 13.4531C16.0455 13.4531 18.0312 11.4673 18.0312 9.01562C18.0312 6.56391 16.0455 4.57812 13.5938 4.57812ZM13.5938 14.5625C10.6317 14.5625 4.71875 16.0491 4.71875 19V22.3281H22.4688V19C22.4688 16.0491 16.5558 14.5625 13.5938 14.5625Z" fill="#323232"/>
</svg>
