<svg width="46" height="46" viewBox="0 0 46 46" fill="none" xmlns="http://www.w3.org/2000/svg">
<path d="M32.5833 11.5H13.4167C7.07249 11.5 1.91666 16.6558 1.91666 23C1.91666 29.3442 7.07249 34.5 13.4167 34.5H32.5833C38.9275 34.5 44.0833 29.3442 44.0833 23C44.0833 16.6558 38.9275 11.5 32.5833 11.5ZM32.5833 30.6667H13.4167C9.18082 30.6667 5.74999 27.2358 5.74999 23C5.74999 18.7642 9.18082 15.3333 13.4167 15.3333H32.5833C36.8192 15.3333 40.25 18.7642 40.25 23C40.25 27.2358 36.8192 30.6667 32.5833 30.6667ZM13.4167 17.25C10.235 17.25 7.66666 19.8183 7.66666 23C7.66666 26.1817 10.235 28.75 13.4167 28.75C16.5983 28.75 19.1667 26.1817 19.1667 23C19.1667 19.8183 16.5983 17.25 13.4167 17.25Z" fill="#323232"/>
</svg>
