<?xml version="1.0" encoding="utf-8"?>
<!-- Generator: Adobe Illustrator 24.0.0, SVG Export Plug-In . SVG Version: 6.00 Build 0)  -->
<svg version="1.1" id="Layer_1" xmlns="http://www.w3.org/2000/svg" xmlns:xlink="http://www.w3.org/1999/xlink" x="0px" y="0px"
	 viewBox="0 0 560 288" style="enable-background:new 0 0 560 288;" xml:space="preserve">
<style type="text/css">
	.st0{fill:#FF7F50;stroke:#000000;stroke-width:7;stroke-miterlimit:10;}
	.st1{fill:none;stroke:#000000;stroke-width:3;stroke-miterlimit:10;}
</style>
<rect x="117" y="45" class="st0" width="387" height="198"/>
<rect x="144" y="72" class="st1" width="18" height="144"/>
<rect x="144" y="72" class="st1" width="72" height="18"/>
<rect x="198" y="72" class="st1" width="18" height="72"/>
<rect x="144" y="126" class="st1" width="72" height="18"/>
<line class="st1" x1="198" y1="216" x2="162" y2="144"/>
<line class="st1" x1="216" y1="216" x2="180" y2="144"/>
<line class="st1" x1="198" y1="216" x2="216" y2="216"/>
<line class="st1" x1="198" y1="144" x2="216" y2="126"/>
<line class="st1" x1="198" y1="72" x2="216" y2="90"/>
<rect x="234" y="144" class="st1" width="18" height="54"/>
<rect x="288" y="144" class="st1" width="18" height="54"/>
<rect x="252" y="198" class="st1" width="36" height="18"/>
<circle class="st1" cx="252" cy="126" r="9"/>
<circle class="st1" cx="288" cy="126" r="9"/>
<line class="st1" x1="288" y1="216" x2="306" y2="198"/>
<line class="st1" x1="234" y1="198" x2="252" y2="216"/>
<rect x="324" y="144" class="st1" width="18" height="72"/>
<rect x="378" y="144" class="st1" width="18" height="72"/>
<line class="st1" x1="342" y1="144" x2="396" y2="216"/>
<line class="st1" x1="324" y1="144" x2="378" y2="216"/>
<path class="st1" d="M467.51,89.98c0.16,0.01,0.32,0.02,0.49,0.02c4.97,0,9-4.03,9-9c0-4.97-4.03-9-9-9s-9,4.03-9,9
	c0,1.19,0.24,2.32,0.66,3.36C455.4,82.22,450.59,81,445.5,81s-9.9,1.22-14.16,3.36c0.42-1.04,0.66-2.17,0.66-3.36c0-4.97-4.03-9-9-9
	s-9,4.03-9,9c0,4.97,4.03,9,9,9c0.17,0,0.33-0.02,0.49-0.02c-5.85,5.72-9.49,13.7-9.49,22.52c0,17.4,14.1,31.5,31.5,31.5
	s31.5-14.1,31.5-31.5C477,103.67,473.36,95.69,467.51,89.98z"/>
<path class="st1" d="M472.22,160.95c2.84-1.51,4.78-4.5,4.78-7.95c0-4.97-4.03-9-9-9c-3.23,0-6.05,1.7-7.64,4.26
	c-4.43-2.71-9.49-4.26-14.86-4.26s-10.43,1.54-14.86,4.26c-1.59-2.55-4.41-4.26-7.64-4.26c-4.97,0-9,4.03-9,9
	c0,3.44,1.94,6.43,4.78,7.95C415.75,166.47,414,173,414,180s1.75,13.53,4.78,19.05c-2.84,1.51-4.78,4.5-4.78,7.95c0,4.97,4.03,9,9,9
	c3.23,0,6.05-1.7,7.64-4.26c4.43,2.71,9.49,4.26,14.86,4.26s10.43-1.54,14.86-4.26c1.59,2.55,4.41,4.26,7.64,4.26c4.97,0,9-4.03,9-9
	c0-3.44-1.94-6.43-4.78-7.95C475.25,193.53,477,187,477,180S475.25,166.47,472.22,160.95z"/>
</svg>
